<?xml version="1.0" encoding="utf-8"?>
<!-- Generator: Adobe Illustrator 16.0.0, SVG Export Plug-In . SVG Version: 6.00 Build 0)  -->
<!DOCTYPE svg PUBLIC "-//W3C//DTD SVG 1.1//EN" "http://www.w3.org/Graphics/SVG/1.1/DTD/svg11.dtd">
<svg version="1.1" id="Layer_1" xmlns="http://www.w3.org/2000/svg" xmlns:xlink="http://www.w3.org/1999/xlink" x="0px" y="0px"
	 width="273px" height="273px" viewBox="0 0 273 273" enable-background="new 0 0 273 273" xml:space="preserve">
<pattern  y="-293" width="183.277" height="183.277" patternUnits="userSpaceOnUse" id="New_Pattern_Swatch_2" viewBox="0 -183.277 183.277 183.277" overflow="visible">
	<g>
		<polygon fill="none" points="0,0 183.277,0 183.277,-183.277 0,-183.277 		"/>
		<polygon fill="#0394A6" points="183.277,0 0,0 0,-183.277 183.277,-183.277 		"/>
	</g>
</pattern>
<pattern  y="-293" width="183.277" height="183.277" patternUnits="userSpaceOnUse" id="New_Pattern_Swatch_3" viewBox="0 -183.277 183.277 183.277" overflow="visible">
	<g>
		<polygon fill="none" points="0,0 183.277,0 183.277,-183.277 0,-183.277 		"/>
		<polygon fill="#F9A33F" points="183.277,0 0,0 0,-183.277 183.277,-183.277 		"/>
	</g>
</pattern>
<path fill="url(#New_Pattern_Swatch_2)" d="M266.783,6.218v260.564H6.217V6.218H266.783 M273,0H0v273h273V0L273,0z"/>
<g>
	<rect x="60.216" y="60.217" fill="#058FA1" width="152.566" height="86.743"/>
	<rect x="69.911" y="64.299" fill="#FFFFFF" width="133.178" height="78.579"/>
	<rect x="60.216" y="180.636" fill="#058FA1" width="152.566" height="32.147"/>
	<g>
		<rect x="66.34" y="185.739" fill="#FFFFFF" width="65.823" height="21.94"/>
		<rect x="141.348" y="185.739" fill="#FFFFFF" width="66.332" height="21.94"/>
	</g>
	<g>
		<rect x="70.932" y="195.435" fill="url(#New_Pattern_Swatch_3)" width="57.148" height="9.185"/>
		<ellipse fill="#FFFFFF" cx="117.443" cy="200.428" rx="1.938" ry="1.977"/>
		<ellipse fill="#FFFFFF" cx="124.567" cy="200.428" rx="1.188" ry="1.212"/>
	</g>
	<g>
		<rect x="143.388" y="191.353" fill="url(#New_Pattern_Swatch_3)" width="62.252" height="13.267"/>
		<rect x="161.247" y="193.394" fill="#FFFFFF" width="25.514" height="4.592"/>
		<rect x="147.47" y="200.536" fill="#FFFFFF" width="55.108" height="1.021"/>
		<ellipse fill="#FFFFFF" cx="201.466" cy="195.689" rx="1.188" ry="1.211"/>
	</g>
	<rect x="19.906" y="90.831" fill="#058FA1" width="34.696" height="121.952"/>
	<path fill="#FFFFFF" d="M37.084,139.546c-7.44,0-13.493-6.054-13.493-13.495c0-7.439,6.053-13.492,13.493-13.492
		s13.494,6.053,13.494,13.492C50.578,133.492,44.524,139.546,37.084,139.546z M37.084,113.184c-7.096,0-12.868,5.772-12.868,12.867
		c0,7.097,5.772,12.87,12.868,12.87s12.869-5.773,12.869-12.87C49.953,118.956,44.18,113.184,37.084,113.184z"/>
	<circle fill="#FFFFFF" cx="37.083" cy="126.051" r="9.897"/>
	<path fill="url(#New_Pattern_Swatch_3)" d="M40.903,126.051c0,2.109-1.711,3.819-3.819,3.819c-2.109,0-3.819-1.71-3.819-3.819
		c0-2.106,1.71-3.818,3.819-3.818C39.192,122.232,40.903,123.944,40.903,126.051z"/>
	<path fill="#FFFFFF" d="M37.084,173.828c-7.44,0-13.493-6.054-13.493-13.494s6.053-13.493,13.493-13.493
		s13.494,6.053,13.494,13.493S44.524,173.828,37.084,173.828z M37.084,147.466c-7.096,0-12.868,5.772-12.868,12.868
		c0,7.097,5.772,12.869,12.868,12.869s12.869-5.772,12.869-12.869C49.953,153.238,44.18,147.466,37.084,147.466z"/>
	<circle fill="#FFFFFF" cx="37.083" cy="160.334" r="9.897"/>
	<circle fill="url(#New_Pattern_Swatch_3)" cx="37.084" cy="160.334" r="3.819"/>
	<rect x="218.396" y="90.831" fill="#058FA1" width="34.698" height="121.952"/>
	<path fill="#FFFFFF" d="M235.513,139.546c-7.44,0-13.495-6.054-13.495-13.495c0-7.439,6.055-13.492,13.495-13.492
		c7.439,0,13.492,6.053,13.492,13.492C249.005,133.492,242.952,139.546,235.513,139.546z M235.513,113.184
		c-7.097,0-12.87,5.772-12.87,12.867c0,7.097,5.773,12.87,12.87,12.87c7.096,0,12.867-5.773,12.867-12.87
		C248.38,118.956,242.608,113.184,235.513,113.184z"/>
	<circle fill="#FFFFFF" cx="235.512" cy="126.051" r="9.896"/>
	<path fill="url(#New_Pattern_Swatch_3)" d="M239.33,126.051c0,2.109-1.708,3.819-3.817,3.819s-3.818-1.71-3.818-3.819
		c0-2.106,1.709-3.818,3.818-3.818S239.33,123.944,239.33,126.051z"/>
	<path fill="#FFFFFF" d="M235.513,173.828c-7.44,0-13.495-6.054-13.495-13.494s6.055-13.493,13.495-13.493
		c7.439,0,13.492,6.053,13.492,13.493S242.952,173.828,235.513,173.828z M235.513,147.466c-7.097,0-12.87,5.772-12.87,12.868
		c0,7.097,5.773,12.869,12.87,12.869c7.096,0,12.867-5.772,12.867-12.869C248.38,153.238,242.608,147.466,235.513,147.466z"/>
	<circle fill="#FFFFFF" cx="235.512" cy="160.334" r="9.896"/>
	<circle fill="url(#New_Pattern_Swatch_3)" cx="235.512" cy="160.334" r="3.818"/>
</g>
</svg>
