<?xml version="1.0" encoding="utf-8"?>
<!-- Generator: Adobe Illustrator 16.0.0, SVG Export Plug-In . SVG Version: 6.00 Build 0)  -->
<!DOCTYPE svg PUBLIC "-//W3C//DTD SVG 1.1//EN" "http://www.w3.org/Graphics/SVG/1.1/DTD/svg11.dtd">
<svg version="1.1" id="Layer_1" xmlns="http://www.w3.org/2000/svg" xmlns:xlink="http://www.w3.org/1999/xlink" x="0px" y="0px"
	 width="273px" height="273px" viewBox="0 0 273 273" enable-background="new 0 0 273 273" xml:space="preserve">
<pattern  width="183.277" height="183.277" patternUnits="userSpaceOnUse" id="New_Pattern_Swatch_2" viewBox="0 -183.277 183.277 183.277" overflow="visible">
	<g>
		<polygon fill="none" points="0,0 183.277,0 183.277,-183.277 0,-183.277 		"/>
		<polygon fill="#0394A6" points="183.277,0 0,0 0,-183.277 183.277,-183.277 		"/>
	</g>
</pattern>
<pattern  width="183.277" height="183.277" patternUnits="userSpaceOnUse" id="New_Pattern_Swatch_3" viewBox="0 -183.277 183.277 183.277" overflow="visible">
	<g>
		<polygon fill="none" points="0,0 183.277,0 183.277,-183.277 0,-183.277 		"/>
		<polygon fill="#F9A33F" points="183.277,0 0,0 0,-183.277 183.277,-183.277 		"/>
	</g>
</pattern>
<path fill="url(#New_Pattern_Swatch_2)" d="M266.783,6.217v260.565H6.217V6.217H266.783 M273,0H0v273h273V0L273,0z"/>
<g>
	<path fill="url(#New_Pattern_Swatch_2)" d="M236.655,81.129h-4.18c-0.551,0-0.999,0.448-0.999,0.999v43.179
		c0,0.551,0.448,0.999,0.999,0.999h4.18c0.551,0,0.999-0.448,0.999-0.999V82.128C237.654,81.577,237.206,81.129,236.655,81.129z"/>
	<path fill="url(#New_Pattern_Swatch_2)" d="M193.459,79.131H23.02c-2.724,0-4.933,2.208-4.933,4.933v102.612
		c0,2.724,2.209,4.933,4.933,4.933h170.439c2.725,0,4.933-2.209,4.933-4.933V84.063C198.392,81.339,196.184,79.131,193.459,79.131z
		 M192.174,171.066c0,2.292-1.857,4.15-4.15,4.15H30.15c-2.292,0-4.149-1.858-4.149-4.15V92.324c0-2.292,1.857-4.15,4.149-4.15
		h157.873c2.293,0,4.15,1.858,4.15,4.15V171.066z"/>
	<rect x="87.044" y="195" fill="url(#New_Pattern_Swatch_3)" width="43.521" height="9.608"/>
	<rect x="54.261" y="208" fill="url(#New_Pattern_Swatch_3)" width="109.087" height="5.652"/>
	<g>
		<path fill="url(#New_Pattern_Swatch_2)" d="M234.382,180.293c-2.48,0-4.497,2.017-4.497,4.498c0,2.48,2.017,4.498,4.497,4.498
			c2.479,0,4.496-2.018,4.496-4.498C238.878,182.31,236.86,180.293,234.382,180.293z"/>
		<path fill="url(#New_Pattern_Swatch_2)" d="M248.492,58.783h-27.854c-3.546,0-6.421,2.874-6.421,6.42v142.593
			c0,3.547,2.875,6.421,6.421,6.421h27.854c3.547,0,6.421-2.874,6.421-6.421V65.203C254.913,61.657,252.039,58.783,248.492,58.783z
			 M229.479,82.128c0-1.655,1.343-2.997,2.997-2.997h4.18c1.655,0,2.997,1.342,2.997,2.997v43.179c0,1.655-1.342,2.997-2.997,2.997
			h-4.18c-1.654,0-2.997-1.342-2.997-2.997V82.128z M234.382,191.601c-3.762,0-6.811-3.049-6.811-6.81
			c0-3.762,3.049-6.811,6.811-6.811s6.809,3.049,6.809,6.811C241.19,188.552,238.144,191.601,234.382,191.601z"/>
	</g>
	<path fill="url(#New_Pattern_Swatch_3)" d="M234.382,180.293c-2.48,0-4.497,2.017-4.497,4.498c0,2.48,2.017,4.498,4.497,4.498
		c2.479,0,4.496-2.018,4.496-4.498C238.878,182.31,236.86,180.293,234.382,180.293z"/>
	<path fill="url(#New_Pattern_Swatch_3)" d="M232.476,81.129c-0.551,0-0.999,0.448-0.999,0.999v43.179
		c0,0.551,0.448,0.999,0.999,0.999h4.18c0.551,0,0.999-0.448,0.999-0.999V82.128c0-0.551-0.448-0.999-0.999-0.999H232.476z"/>
</g>
</svg>
