<?xml version="1.0" encoding="utf-8"?>
<!-- Generator: Adobe Illustrator 16.0.0, SVG Export Plug-In . SVG Version: 6.00 Build 0)  -->
<!DOCTYPE svg PUBLIC "-//W3C//DTD SVG 1.1//EN" "http://www.w3.org/Graphics/SVG/1.1/DTD/svg11.dtd">
<svg version="1.1" id="Layer_1" xmlns="http://www.w3.org/2000/svg" xmlns:xlink="http://www.w3.org/1999/xlink" x="0px" y="0px"
	 width="273px" height="273px" viewBox="0 0 273 273" enable-background="new 0 0 273 273" xml:space="preserve">
<pattern  x="-293" width="183.277" height="183.277" patternUnits="userSpaceOnUse" id="New_Pattern_Swatch_2" viewBox="0 -183.277 183.277 183.277" overflow="visible">
	<g>
		<polygon fill="none" points="0,0 183.277,0 183.277,-183.277 0,-183.277 		"/>
		<polygon fill="#0394A6" points="183.277,0 0,0 0,-183.277 183.277,-183.277 		"/>
	</g>
</pattern>
<pattern  x="-293" width="183.277" height="183.277" patternUnits="userSpaceOnUse" id="New_Pattern_Swatch_3" viewBox="0 -183.277 183.277 183.277" overflow="visible">
	<g>
		<polygon fill="none" points="0,0 183.277,0 183.277,-183.277 0,-183.277 		"/>
		<polygon fill="#F9A33F" points="183.277,0 0,0 0,-183.277 183.277,-183.277 		"/>
	</g>
</pattern>
<g>
	<path fill="url(#New_Pattern_Swatch_2)" d="M266.809,6.192v260.616H6.191V6.192H266.809 M273,0H0v273h273V0L273,0z"/>
</g>
<g id="Your_Icon_22_">
	<g>
		<path fill="url(#New_Pattern_Swatch_2)" d="M116.475,77.958l-60.077,59.596c-0.662,0.656-0.659,1.715-0.005,2.374l80.248,80.896
			c0.654,0.658,1.711,0.67,2.379,0.007l60.077-59.596c0.65-0.646,0.663-1.715,0.007-2.375l-80.248-80.896
			C118.202,77.305,117.131,77.307,116.475,77.958z M166.003,187.959c-1.011,1.003-2.646,1-3.648-0.009
			c-1.006-1.014-0.995-2.643,0.02-3.649c1.009-1.001,2.638-0.998,3.644,0.016C167.019,185.326,167.012,186.959,166.003,187.959z
			 M185.636,152.559c0.656,0.66,0.66,1.713-0.004,2.374l-52.814,52.39c-0.659,0.654-1.719,0.647-2.374-0.014L68.188,144.55
			c-0.66-0.666-0.663-1.72,0-2.379l52.813-52.39c0.667-0.661,1.72-0.647,2.381,0.018L185.636,152.559L185.636,152.559z"/>
	</g>
</g>
<g>
	<path fill="#FFFFFF" d="M96.311,248.486c-2.646,4.483-8.446,5.977-12.927,3.331l-60.521-35.717
		c-4.48-2.647-5.977-8.448-3.33-12.929l18.118-30.697c2.645-4.483,8.444-5.977,12.928-3.331l60.518,35.718
		c4.482,2.645,5.979,8.445,3.333,12.927L96.311,248.486z"/>
	<path fill="url(#New_Pattern_Swatch_2)" d="M41.842,176.544l-16.719,28.329c-1.818,3.078-0.787,7.051,2.281,8.862l55.854,32.965
		c3.072,1.814,7.043,0.793,8.86-2.286l16.721-28.33c1.812-3.069,0.789-7.045-2.282-8.86l-55.854-32.964
		C47.635,172.45,43.654,173.475,41.842,176.544z M105.321,209.316c1.916,1.13,2.555,3.624,1.426,5.535l-16.721,28.33
		c-1.133,1.919-3.624,2.567-5.541,1.437l-55.851-32.966c-1.917-1.13-2.559-3.626-1.424-5.546l16.719-28.331
		c1.129-1.911,3.624-2.555,5.54-1.424L105.321,209.316z"/>
	<path fill="url(#New_Pattern_Swatch_2)" d="M107.908,209.763c1.067,0.628,1.422,2.001,0.791,3.069l-19.498,33.035
		c-0.63,1.065-2.003,1.42-3.069,0.791l-59.698-35.234c-1.066-0.629-1.421-2.003-0.792-3.069l19.498-33.036
		c0.631-1.066,2.005-1.421,3.071-0.79L107.908,209.763z"/>
	<path fill="#FFFFFF" d="M47.489,179.255l-17.267,29.255c-0.455,0.771-0.197,1.766,0.564,2.217l26.317,15.533l0.122,0.07l1.948,1.15
		l1.259,0.744l1.473,0.87l4.374,2.58l1.178,0.697l5.094,3.006l1.177,0.694l5.093,3.005l1.18,0.695l4.389,2.593l0.244,0.142
		c0.768,0.453,1.763,0.196,2.217-0.574l17.27-29.256c0.455-0.772,0.197-1.768-0.569-2.222l-22.976-13.56l-1.226-0.721l-1.259-0.745
		l-0.637-0.376l-27.751-16.378C48.942,178.225,47.945,178.48,47.489,179.255z M90.183,233.104l-4.726,8.008l-4.529-2.674
		l4.725-8.009L90.183,233.104z M84.264,229.611l-4.726,8.008l-4.878-2.88l4.728-8.008L84.264,229.611z M77.99,225.908l-4.727,8.007
		l-4.874-2.875l4.728-8.009L77.99,225.908z M66.147,218.917l5.572,3.29l-4.727,8.007l-5.602-3.307l4.729-8.015
		C66.132,218.896,66.135,218.911,66.147,218.917z M96.766,221.95l-5.758,9.756l-4.53-2.674l5.758-9.755L96.766,221.95z
		 M90.848,218.458l-5.758,9.755l-4.879-2.877l5.759-9.756L90.848,218.458z M84.574,214.753l-5.761,9.757l-4.872-2.877l5.759-9.756
		L84.574,214.753z M72.729,207.765l5.574,3.288l-5.76,9.755l-5.572-3.287c-0.012-0.007-0.025-0.005-0.035-0.01l5.764-9.764
		C72.707,207.751,72.719,207.758,72.729,207.765z M102.725,211.855l-5.14,8.707l-4.531-2.673l5.14-8.707L102.725,211.855z
		 M96.808,208.362l-5.142,8.708l-4.876-2.879l5.139-8.708L96.808,208.362z M90.53,204.658l-5.14,8.708l-4.872-2.875l5.14-8.708
		L90.53,204.658z M84.262,200.958l-5.14,8.707l-5.573-3.288c-0.013-0.006-0.025-0.004-0.035-0.007l5.146-8.719L84.262,200.958z
		 M77.128,196.747L59.86,226.003l-28.249-16.672l17.268-29.257L77.128,196.747z"/>
	
		<rect x="36.77" y="185.969" transform="matrix(0.5083 -0.8612 0.8612 0.5083 -147.9971 146.5884)" fill="#FFFFFF" width="35.195" height="33.849"/>
	<polygon fill="url(#New_Pattern_Swatch_2)" points="78.609,194.539 57.756,229.867 56.359,229.043 77.21,193.714 	"/>
	<g>
		<path fill="url(#New_Pattern_Swatch_3)" d="M73.514,206.369c0.01,0.003,0.022,0.001,0.035,0.007l5.573,3.288l5.14-8.707
			l-5.603-3.307L73.514,206.369z"/>
		<polygon fill="url(#New_Pattern_Swatch_3)" points="96.808,208.362 91.929,205.482 86.79,214.191 91.666,217.07 		"/>
		<polygon fill="url(#New_Pattern_Swatch_3)" points="80.519,210.49 85.391,213.365 90.53,204.658 85.658,201.782 		"/>
		<polygon fill="url(#New_Pattern_Swatch_3)" points="84.574,214.753 79.7,211.878 73.941,221.634 78.813,224.511 		"/>
		<polygon fill="url(#New_Pattern_Swatch_3)" points="90.848,218.458 85.97,215.58 80.211,225.336 85.09,228.213 		"/>
		<path fill="url(#New_Pattern_Swatch_3)" d="M72.7,207.747l-5.764,9.764c0.01,0.005,0.023,0.003,0.035,0.01l5.572,3.287l5.76-9.755
			l-5.574-3.288C72.719,207.758,72.707,207.751,72.7,207.747z"/>
		<path fill="url(#New_Pattern_Swatch_3)" d="M71.72,222.207l-5.572-3.29c-0.013-0.006-0.016-0.021-0.026-0.025l-4.729,8.015
			l5.602,3.307L71.72,222.207z"/>
		<polygon fill="url(#New_Pattern_Swatch_3)" points="90.183,233.104 85.652,230.429 80.928,238.438 85.457,241.112 		"/>
		<polygon fill="url(#New_Pattern_Swatch_3)" points="102.725,211.855 98.193,209.182 93.054,217.889 97.585,220.562 		"/>
		<polygon fill="url(#New_Pattern_Swatch_3)" points="96.766,221.95 92.235,219.277 86.478,229.033 91.008,231.707 		"/>
		<polygon fill="url(#New_Pattern_Swatch_3)" points="84.264,229.611 79.388,226.731 74.66,234.74 79.538,237.62 		"/>
		<polygon fill="url(#New_Pattern_Swatch_3)" points="77.99,225.908 73.117,223.03 68.39,231.039 73.264,233.915 		"/>
	</g>
</g>
<g>
	<g>
		<path fill="#FFFFFF" d="M125.966,97.337c-0.651,0.292-1.334,0.52-2.033,0.678l-73.605,16.519L36.439,52.652l73.604-16.518
			c2.772-0.624,5.629-0.125,8.038,1.401c2.41,1.526,4.08,3.896,4.703,6.668l9.217,41.069
			C133.105,90.193,130.568,95.267,125.966,97.337L125.966,97.337z"/>
		<path fill="url(#New_Pattern_Swatch_2)" d="M40.843,57.216l-14.741,3.268c-2.837,0.637-4.636,3.479-3.999,6.316l9.216,41.068
			c0.637,2.835,3.479,4.636,6.315,3.999l14.74-3.268L40.843,57.216z"/>
		<path fill="url(#New_Pattern_Swatch_2)" d="M111.221,41.382l-68.354,15.34l11.531,51.386l68.355-15.342
			c2.839-0.637,4.638-3.479,4.001-6.316l-9.217-41.069C116.9,42.545,114.059,40.745,111.221,41.382z"/>
	</g>
	<g>
		<path fill="#FFFFFF" d="M65.103,57.496c0.143,0,0.471,0.274,0.587,0.8c0.064,0.286,0.048,0.572-0.046,0.785
			c-0.054,0.121-0.119,0.185-0.157,0.193l-15.436,3.463c-0.143,0-0.47-0.274-0.587-0.799c-0.064-0.287-0.048-0.573,0.047-0.787
			c0.053-0.121,0.118-0.185,0.156-0.193l15.421-3.461C65.093,57.496,65.098,57.496,65.103,57.496 M65.103,56.494
			c-0.078,0-0.156,0.008-0.233,0.026l-15.422,3.461c-0.762,0.171-1.192,1.146-0.961,2.176c0.208,0.924,0.878,1.581,1.564,1.581
			c0.078,0,0.156-0.008,0.233-0.026l15.422-3.461c0.763-0.171,1.192-1.146,0.961-2.175C66.461,57.151,65.79,56.494,65.103,56.494
			L65.103,56.494z"/>
	</g>
	<circle fill="#FFFFFF" cx="96.387" cy="73.047" r="23.027"/>
	
		<circle fill="none" stroke="url(#New_Pattern_Swatch_2)" stroke-width="1.0867" stroke-miterlimit="10" cx="96.387" cy="73.046" r="18.594"/>
	<circle fill="url(#New_Pattern_Swatch_3)" cx="96.387" cy="73.046" r="9.675"/>
	<circle fill="#FFFFFF" cx="96.387" cy="73.046" r="6.635"/>
	<path fill="url(#New_Pattern_Swatch_3)" d="M38.373,55.481c-0.22-0.977-3.17-1.146-6.589-0.377
		c-3.42,0.766-6.015,2.179-5.796,3.157l0.269,1.194l12.384-2.778L38.373,55.481z"/>
	<g>
		<path fill="url(#New_Pattern_Swatch_2)" d="M83.313,46.649c-0.709,0.159-0.846-0.106-0.303-0.59l0.66-0.59
			c0.543-0.484,1.566-1.01,2.275-1.169l9.027-2.026c0.709-0.159,1.861-0.128,2.561,0.07l0.927,0.262
			c0.699,0.198,0.691,0.49-0.018,0.649L83.313,46.649z"/>
	</g>
	<path fill="url(#New_Pattern_Swatch_2)" d="M46.178,54.985l-0.357-1.59c-0.158-0.709,0.291-1.42,1.001-1.58l10.487-2.352
		c0.708-0.161,1.42,0.29,1.579,0.998l0.356,1.59L46.178,54.985z"/>
</g>
<g>
	<path fill="url(#New_Pattern_Swatch_2)" d="M243.885,163.387c0.611-1.051,1.192-2.113,1.747-3.178l1.172,0.682
		c16.258-31.24,7.809-68.513-19.765-84.584c-27.562-16.065-68.619-7.253-83.766,24.241l1.178,0.686
		c-0.495,1.034-0.963,2.085-1.394,3.158c-1.044,2.591-2.011,5.219-2.901,7.872l-1.196-0.696
		c-5.205,15.396-8.021,32.991-7.151,48.431l7.938,4.13c-2.684-15.19-0.407-33.141,4.723-49.351l-1.203-0.701
		c0.988-3.098,2.093-6.174,3.313-9.204c0.26-0.648,0.539-1.285,0.823-1.92l1.178,0.687c13.122-29.359,50.783-37.735,75.943-23.071
		c25.165,14.668,32.624,48.969,17.127,77.317l1.172,0.684c-0.299,0.547-0.604,1.094-0.921,1.637c-1.632,2.8-3.481,5.523-5.508,8.149
		l-1.188-0.693c-9.235,11.871-22.299,21.667-35.947,26.985l0.563,0.327l-1.813,3.111l5.322,3.102
		c14.395-6.582,27.939-17.46,37.306-30.36l-1.18-0.687C241.063,167.934,242.548,165.678,243.885,163.387z"/>
	<path fill="#FFFFFF" d="M184.736,203.749c-0.333-0.195-0.59-0.398-0.78-0.619l-1.19-1.378l1.661-0.746
		c5.864-2.632,12.122-6.645,18.095-11.606c7.985-6.632,14.479-14.197,17.816-20.754l1.466-2.879l1.028,3.062
		c0.093,0.275,0.191,0.552,0.29,0.833c0.789,2.238,1.684,4.775,0.268,7.376l-0.055,0.101c-0.785,1.442-1.248,2.379-0.911,3.449
		l0.116,0.366c0.468,1.455,0.997,3.103,0.329,4.986c-0.397,1.119-1.301,2.012-2.025,2.729c-0.167,0.164-0.328,0.323-0.475,0.477
		c-1.969,2.078-4.202,4.133-6.827,6.285c-3.686,3.026-7.65,5.825-12.118,8.562c-1.225,0.75-2.488,1.495-3.759,2.213
		c-0.146,0.082-0.291,0.168-0.433,0.252c-0.821,0.489-1.753,1.042-3.022,1.049c-1.106,0.007-2.114-0.477-2.926-0.868
		c-0.187-0.089-0.369-0.177-0.547-0.257l-4.116-1.816c-0.052-0.022-0.14-0.054-0.247-0.094
		C185.937,204.309,185.275,204.062,184.736,203.749z"/>
	<path fill="#FFFFFF" d="M138.772,176.959c-0.539-0.315-1.078-0.769-1.436-1.071c-0.09-0.073-0.159-0.132-0.205-0.168l-3.609-2.688
		c-0.154-0.115-0.321-0.23-0.492-0.348c-0.738-0.513-1.658-1.151-2.197-2.118c-0.62-1.108-0.597-2.192-0.576-3.147
		c0.003-0.166,0.007-0.332,0.007-0.5c0-1.46,0.023-2.928,0.072-4.363c0.177-5.162,0.674-10.129,1.477-14.762
		c0.579-3.345,1.269-6.301,2.105-9.04c0.063-0.202,0.121-0.421,0.182-0.646c0.268-0.986,0.6-2.21,1.376-3.108
		c1.31-1.51,3.005-1.862,4.497-2.171l0.379-0.079c1.097-0.233,1.684-1.098,2.552-2.493l0.062-0.097
		c1.564-2.512,4.213-2.985,6.55-3.401c0.292-0.052,0.581-0.103,0.866-0.16l3.171-0.615l-1.782,2.694
		c-4.063,6.137-7.444,15.516-9.278,25.73c-1.372,7.645-1.78,15.067-1.181,21.468l0.17,1.811l-1.786-0.357
		C139.408,177.275,139.105,177.152,138.772,176.959L138.772,176.959z"/>
	<g>
		<path fill="url(#New_Pattern_Swatch_3)" d="M175.198,84.219c1.899,1.106,3.927,1.51,5.547,1.244
			c12.772-4.303,27.336-3.241,38.843,3.465c11.329,6.604,18.457,17.867,20.729,30.587l0.013,0.008
			c0.336,1.783,1.811,3.713,4.041,5.012c1.254,0.732,2.565,1.156,3.777,1.284c-0.434-18.022-9.042-34.692-24.54-43.726
			c-15.385-8.967-35.562-9.096-51.627-0.888C172.69,82.33,173.795,83.399,175.198,84.219z"/>
	</g>
	<path fill="url(#New_Pattern_Swatch_2)" d="M141.157,154.17c1.941-10.81,5.473-20.18,9.483-26.239
		c-2.421,0.469-5.109,0.669-6.527,2.946c-0.867,1.394-1.723,2.824-3.479,3.2c-1.539,0.328-3.033,0.543-4.133,1.812
		c-0.728,0.839-0.974,2.237-1.287,3.262c-0.888,2.907-1.547,5.881-2.065,8.875c-0.836,4.816-1.29,9.695-1.458,14.578
		c-0.048,1.44-0.072,2.878-0.072,4.316c0.001,1.044-0.133,2.038,0.397,2.986c0.492,0.878,1.531,1.456,2.316,2.04
		c1.203,0.897,2.406,1.793,3.61,2.688c0.28,0.21,1.386,1.242,2.018,1.368C139.373,169.742,139.721,162.176,141.157,154.17z"/>
	<path fill="url(#New_Pattern_Swatch_3)" d="M150.503,179.475c0.989-0.4,1.868-1.211,2.468-2.289
		c1.507-3.259,3.052-7.821,4.445-13.197c0.904-3.49,1.744-7.32,2.47-11.358c0.436-2.432,0.809-4.778,1.113-7.068
		c0.646-4.82,1.002-9.206,1.072-12.972c0,0-0.001,0-0.002,0c0.048-1.075-0.412-2.025-1.194-2.729
		c-2.867,6.567-5.776,16.293-7.924,28.247C151.5,166.183,150.729,173.417,150.503,179.475z"/>
	<path fill="#FFFFFF" d="M156.18,155.108c1.629-7.681,2.115-14.063,1.088-14.256c-1.003-0.187-3.077,5.587-4.688,13.001
		c-1.657,7.879-2.161,14.411-1.153,14.816C152.472,168.65,154.58,162.659,156.18,155.108z"/>
	<path fill="url(#New_Pattern_Swatch_2)" d="M203.389,190.441c8.449-7.017,14.862-14.708,18.158-21.181
		c0.784,2.337,1.935,4.773,0.653,7.129c-0.785,1.441-1.61,2.892-1.07,4.605c0.474,1.501,1.023,2.906,0.461,4.49
		c-0.371,1.047-1.468,1.95-2.206,2.728c-2.089,2.205-4.354,4.246-6.703,6.171c-3.782,3.104-7.794,5.898-11.967,8.453
		c-1.228,0.751-2.467,1.481-3.718,2.189c-0.909,0.515-1.708,1.122-2.796,1.128c-1.006,0.004-2.019-0.615-2.917-1.012
		c-1.371-0.605-2.744-1.21-4.116-1.816c-0.322-0.141-1.765-0.594-2.187-1.082C190.719,199.669,197.133,195.639,203.389,190.441z"/>
	<path fill="url(#New_Pattern_Swatch_3)" d="M177.014,194.927c-0.139-1.058,0.134-2.221,0.777-3.274
		c2.094-2.918,5.301-6.511,9.291-10.371c2.592-2.507,5.51-5.127,8.666-7.748c1.901-1.579,3.786-3.073,5.627-4.467
		c3.877-2.938,7.556-5.43,10.782-7.34c0,0,0.002,0.001,0.002,0.002c0.866-0.544,1.939-0.625,2.937-0.291
		c-4.299,5.73-11.342,13.063-20.684,20.824C188.101,187.501,182.174,191.746,177.014,194.927z"/>
	<path fill="url(#New_Pattern_Swatch_3)" d="M195.765,183.32c9.063-7.527,16.406-15.036,20.905-21.062
		c0.395,0.216,0.765,0.502,1.09,0.857c0.4,0.493,0.793,0.999,1.168,1.537c0.642,0.921,1.208,1.858,1.701,2.797
		c0.061,0.113,0.12,0.227,0.178,0.34c-1.981,4.007-5.18,8.498-9.337,13.019c-2.638,2.87-5.659,5.75-9.002,8.525
		c-2.456,2.04-4.938,3.901-7.391,5.564c-4.062,2.751-8.051,4.962-11.739,6.556c-1.062-0.701-2.118-1.557-3.133-2.553
		c-0.52-0.511-1.027-1.056-1.521-1.638c-0.265-0.332-0.46-0.701-0.588-1.094C183.474,192.862,189.541,188.489,195.765,183.32z"/>
	<g>
		<path fill="url(#New_Pattern_Swatch_3)" d="M143.468,113.255c-1.001,0-1.988-0.268-2.856-0.773
			c-1.311-0.764-2.246-1.993-2.633-3.46c-0.387-1.468-0.179-2.998,0.586-4.309c1.015-1.739,2.897-2.82,4.913-2.82
			c1,0,1.987,0.267,2.854,0.772c2.706,1.58,3.624,5.064,2.047,7.77C147.365,112.174,145.483,113.255,143.468,113.255z"/>
		<path fill="#FFFFFF" d="M143.478,103.587c0.681,0,1.371,0.175,2.002,0.542c1.9,1.109,2.544,3.55,1.436,5.452
			c-0.74,1.271-2.076,1.979-3.447,1.979c-0.682,0-1.372-0.175-2.003-0.542c-1.902-1.108-2.546-3.549-1.437-5.452
			C140.77,104.296,142.104,103.587,143.478,103.587 M143.478,100.198L143.478,100.198c-2.616,0-5.06,1.402-6.377,3.66
			c-0.992,1.703-1.263,3.689-0.761,5.595s1.717,3.5,3.419,4.493c1.126,0.656,2.408,1.003,3.709,1.003
			c2.616,0,5.059-1.403,6.375-3.662c2.047-3.511,0.856-8.036-2.655-10.085C146.059,100.544,144.776,100.198,143.478,100.198
			L143.478,100.198z"/>
	</g>
	<circle fill="#FFFFFF" cx="143.471" cy="107.573" r="1.825"/>
	<g>
		<path fill="url(#New_Pattern_Swatch_3)" d="M241.234,170.239c-1,0-1.987-0.267-2.854-0.772c-2.706-1.58-3.624-5.064-2.049-7.769
			c1.015-1.74,2.896-2.821,4.912-2.821c1.001,0,1.989,0.268,2.856,0.774c1.311,0.763,2.245,1.992,2.632,3.459
			c0.387,1.468,0.179,2.998-0.586,4.309C245.132,169.158,243.25,170.239,241.234,170.239z"/>
		<path fill="#FFFFFF" d="M241.243,160.571c0.682,0,1.372,0.175,2.003,0.543c1.901,1.108,2.545,3.549,1.436,5.451
			c-0.74,1.271-2.075,1.979-3.447,1.979c-0.682,0-1.371-0.174-2.002-0.542c-1.902-1.11-2.545-3.55-1.438-5.452
			C238.535,161.28,239.871,160.571,241.243,160.571 M241.243,157.182L241.243,157.182c-2.616,0-5.06,1.403-6.376,3.662
			c-2.046,3.512-0.854,8.036,2.657,10.085c1.129,0.658,2.41,1.004,3.71,1.004c2.617,0,5.06-1.404,6.376-3.663
			c0.991-1.7,1.262-3.686,0.76-5.592c-0.502-1.905-1.716-3.501-3.418-4.493C243.827,157.53,242.544,157.182,241.243,157.182
			L241.243,157.182z"/>
	</g>
	<circle fill="#FFFFFF" cx="241.239" cy="164.558" r="1.825"/>
	<path fill="url(#New_Pattern_Swatch_3)" d="M151.111,157.292c2.084-11.594,4.997-21.685,8.022-28.569
		c-0.382-0.236-0.812-0.418-1.281-0.526c-0.627-0.104-1.261-0.198-1.915-0.258c-1.117-0.106-2.211-0.137-3.271-0.103
		c-0.128,0.004-0.256,0.009-0.384,0.015c-2.509,3.698-4.841,8.695-6.726,14.54c-1.196,3.71-2.214,7.76-2.981,12.034
		c-0.563,3.143-0.96,6.219-1.198,9.174c-0.392,4.89-0.352,9.452,0.081,13.445c1.132,0.579,2.397,1.077,3.765,1.469
		c0.7,0.2,1.427,0.373,2.176,0.516c0.418,0.066,0.835,0.053,1.24-0.028C148.867,172.692,149.683,165.256,151.111,157.292z"/>
	<path fill="#FFFFFF" d="M195.277,178.102c5.881-5.203,11.194-8.771,11.869-7.973c0.656,0.781-3.346,5.43-9.002,10.487
		c-6.04,5.326-11.474,8.983-12.323,8.305C185.32,188.003,189.495,183.218,195.277,178.102z"/>
</g>
</svg>
