<?xml version="1.0" encoding="utf-8"?>
<!-- Generator: Adobe Illustrator 16.0.0, SVG Export Plug-In . SVG Version: 6.00 Build 0)  -->
<!DOCTYPE svg PUBLIC "-//W3C//DTD SVG 1.1//EN" "http://www.w3.org/Graphics/SVG/1.1/DTD/svg11.dtd">
<svg version="1.1" id="Layer_1" xmlns="http://www.w3.org/2000/svg" xmlns:xlink="http://www.w3.org/1999/xlink" x="0px" y="0px"
	 width="273px" height="273px" viewBox="0 0 273 273" enable-background="new 0 0 273 273" xml:space="preserve">
<pattern  x="-293" y="-293" width="183.277" height="183.277" patternUnits="userSpaceOnUse" id="New_Pattern_Swatch_2" viewBox="0 -183.277 183.277 183.277" overflow="visible">
	<g>
		<polygon fill="none" points="0,0 183.277,0 183.277,-183.277 0,-183.277 		"/>
		<polygon fill="#0394A6" points="183.277,0 0,0 0,-183.277 183.277,-183.277 		"/>
	</g>
</pattern>
<pattern  x="-293" y="-293" width="183.277" height="183.277" patternUnits="userSpaceOnUse" id="New_Pattern_Swatch_3" viewBox="0 -183.277 183.277 183.277" overflow="visible">
	<g>
		<polygon fill="none" points="0,0 183.277,0 183.277,-183.277 0,-183.277 		"/>
		<polygon fill="#F9A33F" points="183.277,0 0,0 0,-183.277 183.277,-183.277 		"/>
	</g>
</pattern>
<g>
	<g>
		<path fill="url(#New_Pattern_Swatch_2)" d="M266.782,6.218v260.564H6.218V6.218H266.782 M273,0H0v273h273V0L273,0z"/>
	</g>
	<g>
		<g>
			<path fill="url(#New_Pattern_Swatch_2)" d="M184.359,102.09c3.436-4.398,10.225-7.389,18.004-7.389
				c7.72,0,14.521,3.045,17.979,7.389"/>
			<path fill="#FFFFFF" d="M184.414,106.574c3.437-4.398,10.196-8.18,17.975-8.18c7.721,0,14.438,3.736,17.897,8.082"/>
			<path fill="url(#New_Pattern_Swatch_2)" d="M220.342,102.021h-35.982c-9.449,11.305-16.376,49.174-16.376,100.043h68.733
				C236.717,151.195,229.791,113.326,220.342,102.021z"/>
			<rect x="168.152" y="204.326" fill="url(#New_Pattern_Swatch_2)" width="68.392" height="5.65"/>
			<g>
				<path fill="url(#New_Pattern_Swatch_2)" d="M170.855,132.721l-8.672-23.657c-0.216-0.589,0.029-1.363,0.546-1.721
					c0,0,4.308-2.983,16.409-1.28C179.139,106.063,173.406,116.17,170.855,132.721z"/>
			</g>
			<path fill="url(#New_Pattern_Swatch_3)" d="M226.967,108.801c1.08,2.549,2.051,5.326,2.921,8.203
				c6.335,0.918,12.127,2.967,14.35,7.188c2.122,4.027,1.355,10.693-2.215,19.277c-1.475,3.541-3.329,7.182-5.318,10.713
				c0.376,3.547,0.706,7.203,0.992,10.959C253.508,142.016,272.036,108.863,226.967,108.801z"/>
			<path fill="#FFFFFF" d="M212.731,173.1c0,5.578-4.522,10.102-10.102,10.102c-5.577,0-10.101-4.523-10.101-10.102l2.74-41.201
				c0-4.064,3.295-7.361,7.36-7.361c4.066,0,7.363,3.297,7.363,7.361L212.731,173.1z"/>
			
				<line fill="none" stroke="url(#New_Pattern_Swatch_3)" stroke-width="2.2609" stroke-linecap="round" stroke-miterlimit="10" x1="199.805" y1="141.586" x2="204.892" y2="141.586"/>
			
				<line fill="none" stroke="url(#New_Pattern_Swatch_3)" stroke-width="2.2609" stroke-linecap="round" stroke-miterlimit="10" x1="199.805" y1="154.021" x2="204.892" y2="154.021"/>
			
				<line fill="none" stroke="url(#New_Pattern_Swatch_3)" stroke-width="2.2609" stroke-linecap="round" stroke-miterlimit="10" x1="199.805" y1="166.455" x2="204.892" y2="166.455"/>
		</g>
		<path fill="#FFFFFF" d="M181.125,209.404c0.124-0.85,1.274-0.775,2.472-0.947c1.03-0.146,1.468-1.109,1.569-1.379
			c0.042-0.137,0.078-0.275,0.103-0.418l0.06-0.023c0.193-1.256,0.347-2.592,0.347-3.975v-0.043c0-1.381-0.157-2.719-0.352-3.977
			l-0.038-0.063c-0.018-0.096-0.055-0.191-0.08-0.285c-0.004-0.014-0.018-0.025-0.021-0.039c-0.075-0.211-0.505-1.256-1.583-1.41
			c-1.199-0.172-2.35-0.098-2.474-0.947c-0.4-1.055-1.517-1.807-2.726-1.807c-1.554,0-2.901,1.246-2.901,2.775v11.566
			c0,1.531,1.348,2.777,2.901,2.777C179.61,211.211,180.726,210.459,181.125,209.404L181.125,209.404z"/>
		<g>
			<g>
				<g>
					<path fill="url(#New_Pattern_Swatch_3)" d="M79.689,77.916c6.974,0,13.447,2.166,18.794,5.857
						c1.868-1.008,3.516-2.273,4.396-4.471c0.104-0.258,0.186-0.516,0.252-0.771c-6.6-4.766-14.694-7.586-23.442-7.586
						c-8.719,0-16.789,2.803-23.38,7.543c0.222,2.5,0.844,5.023,1.766,7.467C63.887,80.951,71.438,77.916,79.689,77.916z"/>
					<path fill="url(#New_Pattern_Swatch_3)" d="M79.689,68.229c8.622,0,16.651,2.566,23.382,6.965
						c-1.6-5.541-10.194-10.318-16.136-12.857c-2.365-0.352-4.784-0.535-7.246-0.535c-7.189,0-14.024,1.549-20.188,4.328
						c-2.041,2.723-3.044,5.842-3.247,9.1C62.994,70.809,71.045,68.229,79.689,68.229z"/>
					<path fill="url(#New_Pattern_Swatch_3)" d="M58.951,88.07c1.08,2.367,2.424,4.617,3.924,6.645
						c4.27-4.383,10.229-7.113,16.814-7.113c3.456,0,6.736,0.756,9.695,2.104c0.737-0.906,1.625-1.766,2.696-2.566
						c1.241-0.932,2.691-1.596,4.134-2.258c-4.788-3.031-10.453-4.793-16.525-4.793C71.722,80.088,64.449,83.111,58.951,88.07z"/>
					<path fill="url(#New_Pattern_Swatch_3)" d="M67.155,99.49c1.624,1.98,8.04,9.365,12.626,10.965
						c0.556-1.338,2.304-2.156,4.54-2.645c0.014-0.061,0.029-0.119,0.043-0.184c1.244-5.883,0.997-11.781,4.047-16.572
						c-2.673-1.17-5.622-1.822-8.722-1.822c-6.211,0-11.82,2.609-15.803,6.785C64.925,97.295,66.026,98.465,67.155,99.49z"/>
					<path fill="url(#New_Pattern_Swatch_3)" d="M103.176,111.086c0,9.381-5.53,17.49-13.5,21.252
						c-0.023,0.486-0.071,0.984-0.146,1.498c-0.358,2.492-1.599,4.879-2.269,7.311c13.443-3.389,23.426-15.578,23.426-30.061
						c0-0.641-0.025-1.277-0.065-1.91c-2.551-0.813-5.173-1.342-7.708-1.58C103.085,108.734,103.176,109.9,103.176,111.086z"/>
					<path fill="url(#New_Pattern_Swatch_3)" d="M98.421,107.475c-2.124-0.209-9.251-0.719-14.1,0.336
						c-0.675,2.879-2.41,3.387-4.54,2.645c-0.143,0.346-0.205,0.729-0.176,1.148c0.657,0.555,0.974,1.428,1.037,2.504
						c3.658,5.535,8.537,9.846,9.014,16.42c7.052-3.631,11.889-10.979,11.889-19.441c0-1.229-0.107-2.434-0.305-3.607
						C100.279,107.436,99.334,107.432,98.421,107.475z"/>
					<path fill="url(#New_Pattern_Swatch_3)" d="M119.738,113.711c-2.074-1.527-4.428-2.777-6.905-3.75
						c0.013,0.375,0.029,0.748,0.029,1.125c0,15.836-11.155,29.105-26.019,32.387c-0.074,1.154,0.072,2.328,0.59,3.539
						c0.549,1.285,1.417,2.223,2.506,2.887C106.309,145.57,118.607,131.139,119.738,113.711z"/>
					<path fill="url(#New_Pattern_Swatch_3)" d="M122.277,115.861c-1.81,16.244-12.729,29.77-27.521,35.344
						c6.677,0.373,15.696-3.152,19.534-5.057c6.033-5.953,10.541-13.447,12.88-21.838
						C126.409,121.023,124.656,118.201,122.277,115.861z"/>
					<path fill="url(#New_Pattern_Swatch_3)" d="M48.95,149.582c3.151,0.379,6.265-0.205,9.202-1.463
						c-12.738-7.438-21.32-21.248-21.32-37.033c0-1.043,0.049-2.076,0.123-3.102c-3.131,5.23-3.868,14.16-3.854,19.186
						C36.181,136.066,41.74,143.813,48.95,149.582z"/>
					<path fill="url(#New_Pattern_Swatch_3)" d="M56.23,112.104c-0.581-0.273-1.166-0.588-1.755-0.959
						c-2.012-1.271-3.615-3.215-5.425-4.777c-0.236,1.539-0.359,3.115-0.359,4.719c0,13.234,8.34,24.553,20.036,28.99
						c1.751-2.016,3.268-4.207,4.479-6.422C63.714,130.924,56.669,122.357,56.23,112.104z"/>
					<path fill="url(#New_Pattern_Swatch_2)" d="M40.244,145.76c-1.556-1.766-2.995-3.637-4.306-5.604
						C37.019,142.283,38.433,144.211,40.244,145.76z"/>
					<path fill="url(#New_Pattern_Swatch_3)" d="M73.97,132.176c0.35-0.721,0.665-1.443,0.945-2.16
						c1.289-2.254,6.005-11.094,5.728-15.908c-0.05-0.072-0.099-0.145-0.146-0.217c-0.564-0.867-0.842-1.623-0.891-2.287
						c-0.678-0.574-1.72-0.809-3.233-0.568c-6.485,1.023-12.353,3.719-18.465,1.734C58.621,122.096,65.209,129.799,73.97,132.176z"
						/>
					<path fill="url(#New_Pattern_Swatch_3)" d="M67.145,141.789c-12.088-4.959-20.627-16.848-20.627-30.703
						c0-2.098,0.205-4.148,0.578-6.139c-1.105-0.643-2.336-1.07-3.793-1.094c-1.217-0.02-2.289,0.289-3.241,0.844
						c-0.333,2.082-0.513,4.215-0.513,6.389c0,15.412,8.734,28.816,21.511,35.541C63.248,145.316,65.3,143.658,67.145,141.789z"/>
					<path fill="url(#New_Pattern_Swatch_2)" d="M79.689,48.854c-34.315,0-62.233,27.918-62.233,62.232
						c0,34.318,27.918,62.234,62.233,62.234c34.317,0,62.236-27.916,62.236-62.234C141.926,76.771,114.007,48.854,79.689,48.854z
						 M79.689,169.518c-32.217,0-58.429-26.213-58.429-58.432c0-32.215,26.212-58.428,58.429-58.428
						c32.22,0,58.43,26.213,58.43,58.428C138.119,143.305,111.909,169.518,79.689,169.518z"/>
					<path fill="url(#New_Pattern_Swatch_2)" d="M79.689,58.539c-28.974,0-52.546,23.574-52.546,52.547
						c0,10.742,3.242,20.74,8.795,29.07c-1.773-3.494-2.639-7.527-2.804-11.344c-0.021-0.479-0.032-1.035-0.033-1.643
						c-1.746-5.045-2.696-10.453-2.696-16.084c0-19.984,11.958-37.23,29.096-44.957c0.835-1.115,1.839-2.166,3.04-3.131
						c5.787-4.635,13.991-4.328,20.654-2.105c0.992,0.332,2.29,0.82,3.74,1.443c23.755,3.514,42.041,24.037,42.041,48.75
						c0,4.58-0.631,9.014-1.806,13.225c0.411,1.77,0.541,3.668,0.316,5.707c-0.816,7.369-6.833,12.953-13.116,16.092
						c-0.024,0.014-0.054,0.027-0.08,0.039c-8.904,8.791-21.13,14.225-34.602,14.225c-11.614,0-22.306-4.043-30.739-10.791
						c-2.155-0.26-4.327-0.971-6.473-2.227c-0.803-0.471-1.546-1.006-2.233-1.596c9.637,10.951,23.747,17.875,39.445,17.875
						c28.976,0,52.547-23.574,52.547-52.549C132.236,82.113,108.665,58.539,79.689,58.539z"/>
					<path fill="url(#New_Pattern_Swatch_2)" d="M94.757,151.205c-1.835-0.102-3.492-0.5-4.817-1.307
						c-3.273,0.865-6.708,1.332-10.25,1.332c-6.722,0-13.058-1.67-18.63-4.604c-0.945,0.566-1.916,1.066-2.907,1.492
						c6.332,3.697,13.689,5.828,21.537,5.828C84.991,153.947,90.065,152.973,94.757,151.205z"/>
					<path fill="url(#New_Pattern_Swatch_2)" d="M103.132,78.531c10.107,7.297,16.699,19.166,16.699,32.555
						c0,0.883-0.037,1.758-0.093,2.625c0.904,0.666,1.757,1.381,2.539,2.15c0.176-1.568,0.273-3.158,0.273-4.775
						c0-15.01-7.763-28.234-19.479-35.893C103.384,76.281,103.433,77.396,103.132,78.531z"/>
					<path fill="url(#New_Pattern_Swatch_2)" d="M40.062,104.697c1.73-10.76,7.752-20.1,16.248-26.209
						c-0.097-1.096-0.122-2.186-0.056-3.26c-10.871,7.129-18.313,19.061-19.299,32.756C37.805,106.566,38.828,105.42,40.062,104.697
						z"/>
					<path fill="url(#New_Pattern_Swatch_2)" d="M58.951,88.07c-0.317-0.695-0.607-1.402-0.876-2.115
						c-5.591,4.814-9.562,11.455-10.979,18.992c0.692,0.402,1.336,0.887,1.955,1.42C50.156,99.152,53.763,92.75,58.951,88.07z"/>
					<path fill="url(#New_Pattern_Swatch_2)" d="M79.689,142.086c-3.857,0-7.552-0.715-10.962-2.01
						c-0.508,0.586-1.036,1.16-1.583,1.713c3.873,1.588,8.108,2.471,12.545,2.471c2.458,0,4.85-0.277,7.154-0.787
						c0.053-0.783,0.206-1.557,0.418-2.326C84.836,141.756,82.301,142.086,79.689,142.086z"/>
					<path fill="url(#New_Pattern_Swatch_2)" d="M98.483,83.773c-0.733,0.393-1.499,0.752-2.269,1.107
						c8.181,5.178,13.784,14.072,14.407,24.295c0.745,0.238,1.485,0.5,2.211,0.785C112.469,99.107,106.872,89.561,98.483,83.773z"/>
					<path fill="url(#New_Pattern_Swatch_2)" d="M89.656,130.527c-2.991,1.539-6.379,2.414-9.967,2.414
						c-1.979,0-3.896-0.27-5.72-0.766c-0.239,0.494-0.494,0.986-0.763,1.479c2.061,0.594,4.234,0.918,6.482,0.918
						c3.57,0,6.955-0.805,9.986-2.234C89.707,131.715,89.699,131.111,89.656,130.527z"/>
					<path fill="url(#New_Pattern_Swatch_2)" d="M56.23,112.104c0.562,0.262,1.12,0.486,1.677,0.666
						c-0.043-0.555-0.072-1.115-0.072-1.684c0-5.838,2.307-11.145,6.052-15.068c-0.346-0.424-0.683-0.857-1.012-1.303
						c-4.123,4.234-6.67,10.01-6.67,16.371C56.205,111.428,56.215,111.766,56.23,112.104z"/>
					<path fill="url(#New_Pattern_Swatch_2)" d="M101.24,107.479c0.553,0.025,1.11,0.064,1.674,0.117
						c-1.194-7.98-6.421-14.654-13.529-17.891c-0.359,0.439-0.68,0.889-0.974,1.35C95.072,93.965,100.01,100.102,101.24,107.479z"/>
				</g>
				<g>
					<path fill="url(#New_Pattern_Swatch_2)" d="M79.689,119.155c-4.448,0-8.067-3.62-8.067-8.069c0-4.448,3.619-8.067,8.067-8.067
						c4.449,0,8.069,3.619,8.069,8.067C87.759,115.535,84.139,119.155,79.689,119.155z"/>
					<path fill="#FFFFFF" d="M79.689,105.736c2.951,0,5.352,2.399,5.352,5.35c0,2.951-2.4,5.352-5.352,5.352
						c-2.95,0-5.35-2.4-5.35-5.352C74.34,108.136,76.739,105.736,79.689,105.736 M79.689,100.301
						c-5.956,0-10.785,4.83-10.785,10.785c0,5.957,4.829,10.787,10.785,10.787c5.958,0,10.787-4.83,10.787-10.787
						C90.477,105.131,85.647,100.301,79.689,100.301L79.689,100.301z"/>
				</g>
			</g>
			<path fill="url(#New_Pattern_Swatch_2)" d="M93.643,185.406c-0.006-3.51-0.072-6.971-0.134-10.377
				c-4.444,0.955-9.071,1.461-13.802,1.461c-3.989,0-7.902-0.359-11.694-1.043c-0.056,3.271-0.074,6.594-0.08,9.959
				c-22.958,2.094-39.955,9.678-39.955,18.713v5.857h105.697v-5.857C133.675,195.084,116.601,187.5,93.643,185.406z"/>
			
				<line fill="none" stroke="#FFFFFF" stroke-width="1.6957" stroke-linecap="round" stroke-miterlimit="10" x1="34.195" y1="201.781" x2="126.892" y2="201.781"/>
		</g>
		<path fill="#FFFFFF" d="M179.457,165.99c0-4.602-3.045-5.707-3.049-5.709l-4.67-1.654c-11.277-4.002-26.444-6.207-42.698-6.207
			c-15.849,0-30.746,2.111-41.944,5.947l-4.135,1.416c-3.459,1.188-3.846,4.771-3.88,5.875l-0.002,56.754h100.378v-53.285v-3.135
			V165.99z"/>
		<g>
			<path fill="url(#New_Pattern_Swatch_3)" d="M81.674,216.195v3.115c0,1.262,1.271,2.537,2.533,2.537h90.095
				c1.261,0,2.329-1.275,2.329-2.537v-3.115H81.674z"/>
			<path fill="url(#New_Pattern_Swatch_3)" d="M93.786,221.281c0,1.697-2.214,3.121-4.946,3.121c-2.733,0-4.946-1.424-4.946-3.121
				H93.786z"/>
			<path fill="url(#New_Pattern_Swatch_3)" d="M174.657,221.281c0,1.697-2.215,3.121-4.946,3.121c-2.732,0-4.945-1.424-4.945-3.121
				H174.657z"/>
		</g>
		<path fill="#FFFFFF" d="M175.5,170.021c0-0.867,0.467-1.422,0.716-1.695c0.44-0.488,1.2-0.74,1.869-0.74h4.797
			c1.177,0,2.28,0.609,2.882,1.635c0.6,1.023,0.614,2.355,0.038,3.381c-0.638,1.135-1.743,1.768-3.286,1.768h-0.243
			c-0.927,0-1.958,0.404-2.493,1.172l-4.279,5.893V170.021z"/>
		<path fill="url(#New_Pattern_Swatch_3)" d="M182.882,169.848c-1.105,0-2.21,0-3.316,0c-0.494,0-0.987,0-1.48,0
			c-0.087,0-0.323,0.016-0.323,0.1c0,0.23,0,0.463,0,0.697c0,1.172,0,2.348,0,3.52c1.131-1.377,2.695-2.221,4.376-2.221
			c0.567,0,1.273,0.066,1.606-0.527C184.136,170.719,183.68,169.848,182.882,169.848z"/>
		<path fill="url(#New_Pattern_Swatch_3)" d="M183.413,202.648c0,0,0-0.004,0-0.006c0-1.311-0.163-2.547-0.334-3.65
			c-0.06-0.322-0.381-0.641-0.714-0.66c0,0-0.08,0-0.08-0.002c-1.221-0.049-2.263-0.293-3.393-0.684v-0.779
			c0-0.273-0.269-0.494-0.566-0.494c-0.296,0-0.564,0.221-0.564,0.494v11.566c0,0.275,0.269,0.494,0.564,0.494
			c0.298,0,0.566-0.219,0.566-0.494v-0.779c1.13-0.389,2.158-0.635,3.382-0.684c-0.002-0.004,0.026-0.006,0.024-0.01
			c0.338-0.02,0.715-0.346,0.768-0.674l0,0c0.169-1.096,0.347-2.326,0.347-3.625C183.413,202.656,183.413,202.652,183.413,202.648z"
			/>
		<path fill="url(#New_Pattern_Swatch_2)" d="M176.631,213.934v-27.238v-4.404v-15.27h-0.239c-0.025-2.26-1.593-4.523-3.797-5.385
			c-0.058-0.02-0.115,0.016-0.172-0.006c-0.114-0.041-0.228-0.053-0.344-0.086c0.001-0.004,0.003,0.008,0.005,0.004
			c-10.766-3.82-26.073-6.201-43.058-6.201c-16.606,0-31.604,2.287-42.327,5.959c0.008,0.012,0.018,0.025,0.024,0.035
			c-2.641,0.617-4.609,2.889-4.609,5.717c0,0.02,0.001-0.037,0.001-0.037h0.124v15.27v4.605v27.037H176.631z"/>
		<path fill="none" stroke="#FFFFFF" stroke-width="1.598" stroke-linecap="round" stroke-miterlimit="10" d="M86.332,166.467"/>
		<path fill="none" stroke="#FFFFFF" stroke-width="1.598" stroke-linecap="round" stroke-miterlimit="10" d="M167.972,165.477
			c-10.439-3.109-24.225-5-39.337-5c-14.53,0-27.83,1.748-38.112,4.646"/>
		<path fill="none" stroke="#FFFFFF" stroke-width="1.598" stroke-linecap="round" stroke-miterlimit="10" d="M171.686,166.695"/>
	</g>
</g>
</svg>
