<?xml version="1.0" encoding="utf-8"?>
<!-- Generator: Adobe Illustrator 16.0.0, SVG Export Plug-In . SVG Version: 6.00 Build 0)  -->
<!DOCTYPE svg PUBLIC "-//W3C//DTD SVG 1.1//EN" "http://www.w3.org/Graphics/SVG/1.1/DTD/svg11.dtd">
<svg version="1.1" id="Layer_1" xmlns="http://www.w3.org/2000/svg" xmlns:xlink="http://www.w3.org/1999/xlink" x="0px" y="0px"
	 width="273px" height="273px" viewBox="0 0 273 273" enable-background="new 0 0 273 273" xml:space="preserve">
<pattern  x="-293" width="183.277" height="183.277" patternUnits="userSpaceOnUse" id="New_Pattern_Swatch_2" viewBox="0 -183.277 183.277 183.277" overflow="visible">
	<g>
		<polygon fill="none" points="0,0 183.277,0 183.277,-183.277 0,-183.277 		"/>
		<polygon fill="#0394A6" points="183.277,0 0,0 0,-183.277 183.277,-183.277 		"/>
	</g>
</pattern>
<pattern  x="-293" width="183.277" height="183.277" patternUnits="userSpaceOnUse" id="New_Pattern_Swatch_3" viewBox="0 -183.277 183.277 183.277" overflow="visible">
	<g>
		<polygon fill="none" points="0,0 183.277,0 183.277,-183.277 0,-183.277 		"/>
		<polygon fill="#F9A33F" points="183.277,0 0,0 0,-183.277 183.277,-183.277 		"/>
	</g>
</pattern>
<path fill="url(#New_Pattern_Swatch_2)" d="M266.809,6.192v260.616H6.191V6.192H266.809 M273,0H0v273h273V0L273,0z"/>
<g>
	<polygon fill="url(#New_Pattern_Swatch_3)" points="102.719,204.929 98.188,202.256 93.048,210.962 97.579,213.635 	"/>
	<path fill="#FFFFFF" d="M106.551,200.299l-55.854-32.964c-3.067-1.811-7.048-0.786-8.86,2.284l-16.719,28.329
		c-1.818,3.078-0.787,7.051,2.281,8.862l55.854,32.965c3.072,1.814,7.043,0.793,8.86-2.286l16.721-28.33
		C110.645,206.09,109.622,202.114,106.551,200.299z"/>
	
		<rect x="92.828" y="205.315" transform="matrix(-0.5084 0.8611 -0.8611 -0.5084 326.7146 229.3633)" fill="#FFFFFF" width="10.11" height="5.261"/>
	<polygon fill="url(#New_Pattern_Swatch_3)" points="97.579,213.635 102.719,204.929 98.188,202.256 93.048,210.962 	"/>
	<path fill="#FFFFFF" d="M49.697,171.75c-0.761-0.451-1.758-0.196-2.214,0.58l-17.267,29.255c-0.455,0.771-0.197,1.766,0.564,2.217
		l26.317,15.533l0.122,0.07l0.544,0.321l18.916-32.051L49.697,171.75z"/>
	<path fill="#FFFFFF" d="M59.169,220.554l1.259,0.744l1.473,0.87l4.374,2.58l1.178,0.697l5.094,3.006l1.177,0.694l5.093,3.005
		l1.18,0.695l4.389,2.593l0.244,0.142c0.768,0.453,1.763,0.196,2.217-0.574l17.27-29.256c0.455-0.772,0.197-1.768-0.569-2.222
		l-22.976-13.56l-1.226-0.721l-1.259-0.745l-0.006-0.003l-18.918,32.05L59.169,220.554z M73.258,226.988l-4.874-2.875l4.728-8.009
		l4.873,2.878L73.258,226.988z M78.808,217.584l-4.872-2.877l5.759-9.756l4.874,2.875L78.808,217.584z M85.964,208.653l4.878,2.878
		l-5.758,9.755l-4.879-2.877L85.964,208.653z M79.532,230.693l-4.878-2.88l4.728-8.008l4.876,2.88L79.532,230.693z M85.451,234.186
		l-4.529-2.674l4.725-8.009l4.53,2.675L85.451,234.186z M91.002,224.78l-4.53-2.674l5.758-9.755l4.53,2.673L91.002,224.78z
		 M102.719,204.929l-5.14,8.707l-4.531-2.673l5.14-8.707L102.719,204.929z M96.802,201.436l-5.142,8.708l-4.876-2.879l5.139-8.708
		L96.802,201.436z M90.524,197.731l-5.14,8.708l-4.872-2.875l5.14-8.708L90.524,197.731z M78.653,190.724l5.603,3.307l-5.14,8.707
		l-5.573-3.288c-0.013-0.006-0.025-0.004-0.035-0.007L78.653,190.724z M72.694,200.82c0.007,0.005,0.019,0.011,0.029,0.019
		l5.574,3.288l-5.76,9.755l-5.572-3.287c-0.012-0.007-0.025-0.005-0.035-0.01L72.694,200.82z M66.115,211.966
		c0.011,0.004,0.014,0.019,0.026,0.025l5.572,3.29l-4.727,8.007l-5.602-3.307L66.115,211.966z"/>
	<polygon fill="#FFFFFF" points="78.079,188.5 78.604,187.612 77.204,186.788 76.681,187.674 77.448,188.127 	"/>
	<polygon fill="url(#New_Pattern_Swatch_2)" points="78.079,188.5 78.604,187.612 77.204,186.788 76.681,187.674 77.448,188.127 	
		"/>
	<polygon fill="url(#New_Pattern_Swatch_2)" points="78.079,188.5 78.604,187.612 77.204,186.788 76.681,187.674 77.448,188.127 	
		"/>
	
		<rect x="57.035" y="220.142" transform="matrix(0.5081 -0.8613 0.8613 0.5081 -161.7816 158.6145)" fill="#FFFFFF" width="1.893" height="1.622"/>
	<polygon fill="url(#New_Pattern_Swatch_2)" points="57.765,219.726 56.803,221.356 58.199,222.18 59.161,220.55 	"/>
	<polygon fill="url(#New_Pattern_Swatch_2)" points="57.765,219.726 56.803,221.356 58.199,222.18 59.161,220.55 	"/>
	
		<rect x="56.466" y="221.707" transform="matrix(-0.8613 -0.5081 0.5081 -0.8613 -6.2548 442.5896)" fill="#FFFFFF" width="1.621" height="0.883"/>
	<polygon fill="url(#New_Pattern_Swatch_2)" points="56.354,222.117 57.75,222.94 58.199,222.18 56.803,221.356 	"/>
	<polygon fill="url(#New_Pattern_Swatch_2)" points="56.354,222.117 57.75,222.94 58.199,222.18 56.803,221.356 	"/>
	<polygon fill="url(#New_Pattern_Swatch_2)" points="56.354,222.117 57.75,222.94 58.199,222.18 56.803,221.356 	"/>
	<polygon fill="#FFFFFF" points="78.079,188.5 77.448,188.127 76.681,187.674 57.765,219.726 59.161,220.55 	"/>
	<g>
		<path fill="url(#New_Pattern_Swatch_2)" d="M106.551,200.299l-55.854-32.964c-3.067-1.811-7.048-0.786-8.86,2.284l-16.719,28.329
			c-1.818,3.078-0.787,7.051,2.281,8.862l55.854,32.965c3.072,1.814,7.043,0.793,8.86-2.286l16.721-28.33
			C110.645,206.09,109.622,202.114,106.551,200.299z M78.604,187.612l-0.524,0.888l0.006,0.003l1.259,0.745l1.226,0.721
			l22.976,13.56c0.767,0.454,1.024,1.449,0.569,2.222l-17.27,29.256c-0.454,0.77-1.449,1.027-2.217,0.574l-0.244-0.142l-4.389-2.593
			l-1.18-0.695l-5.093-3.005l-1.177-0.694l-5.094-3.006l-1.178-0.697l-4.374-2.58l-1.473-0.87l-1.259-0.744l-0.008-0.004
			l-0.962,1.63l-0.449,0.76l-1.396-0.824l0.449-0.761l0.962-1.63l-0.544-0.321l-0.122-0.07l-26.317-15.533
			c-0.762-0.451-1.02-1.446-0.564-2.217l17.267-29.255c0.456-0.775,1.453-1.031,2.214-0.58l26.983,15.925l0.523-0.887"/>
		<polygon fill="url(#New_Pattern_Swatch_2)" points="77.448,188.127 76.681,187.674 57.765,219.726 59.161,220.55 78.079,188.5 		
			"/>
	</g>
	<path fill="#FFFFFF" d="M79.116,202.738l5.14-8.707l-5.603-3.307l-5.146,8.719c0.01,0.003,0.022,0.001,0.035,0.007L79.116,202.738z
		"/>
	<path fill="url(#New_Pattern_Swatch_3)" d="M79.116,202.738l5.14-8.707l-5.603-3.307l-5.146,8.719
		c0.01,0.003,0.022,0.001,0.035,0.007L79.116,202.738z"/>
	
		<rect x="86.735" y="201.517" transform="matrix(-0.5085 0.8611 -0.8611 -0.5085 314.4267 229.2118)" fill="#FFFFFF" width="10.112" height="5.665"/>
	<polygon fill="url(#New_Pattern_Swatch_3)" points="91.66,210.144 96.802,201.436 91.923,198.556 86.784,207.265 	"/>
	
		<rect x="80.463" y="197.818" transform="matrix(-0.5083 0.8612 -0.8612 -0.5083 301.7806 228.9921)" fill="#FFFFFF" width="10.111" height="5.658"/>
	<polygon fill="url(#New_Pattern_Swatch_3)" points="85.385,206.439 90.524,197.731 85.652,194.855 80.513,203.564 	"/>
	
		<rect x="76.423" y="205.602" transform="matrix(-0.8611 -0.5085 0.5085 -0.8611 40.0717 433.4827)" fill="#FFFFFF" width="5.658" height="11.331"/>
	<polygon fill="url(#New_Pattern_Swatch_3)" points="73.936,214.708 78.808,217.584 84.568,207.827 79.694,204.952 	"/>
	
		<rect x="82.692" y="209.306" transform="matrix(0.8613 0.5081 -0.5081 0.8613 121.1 -13.6359)" fill="#FFFFFF" width="5.664" height="11.329"/>
	<polygon fill="url(#New_Pattern_Swatch_3)" points="90.842,211.531 85.964,208.653 80.205,218.41 85.084,221.287 	"/>
	<path fill="#FFFFFF" d="M72.538,213.882l5.76-9.755l-5.574-3.288c-0.011-0.007-0.022-0.014-0.029-0.019l-5.764,9.764
		c0.01,0.005,0.023,0.003,0.035,0.01L72.538,213.882z"/>
	<path fill="url(#New_Pattern_Swatch_3)" d="M72.538,213.882l5.76-9.755l-5.574-3.288c-0.011-0.007-0.022-0.014-0.029-0.019
		l-5.764,9.764c0.01,0.005,0.023,0.003,0.035,0.01L72.538,213.882z"/>
	<path fill="#FFFFFF" d="M71.714,215.28l-5.572-3.29c-0.013-0.006-0.016-0.021-0.026-0.025l-4.729,8.015l5.602,3.307L71.714,215.28z
		"/>
	<path fill="url(#New_Pattern_Swatch_3)" d="M71.714,215.28l-5.572-3.29c-0.013-0.006-0.016-0.021-0.026-0.025l-4.729,8.015
		l5.602,3.307L71.714,215.28z"/>
	
		<rect x="82.919" y="224.196" transform="matrix(-0.8611 -0.5084 0.5084 -0.8611 42.8822 469.4031)" fill="#FFFFFF" width="5.26" height="9.299"/>
	<polygon fill="url(#New_Pattern_Swatch_3)" points="80.922,231.512 85.451,234.186 90.177,226.178 85.646,223.503 	"/>
	
		<rect x="88.985" y="212.901" transform="matrix(-0.8612 -0.5083 0.5083 -0.8612 59.4207 453.358)" fill="#FFFFFF" width="5.26" height="11.329"/>
	<polygon fill="url(#New_Pattern_Swatch_3)" points="86.472,222.106 91.002,224.78 96.76,215.024 92.229,212.351 	"/>
	
		<rect x="74.807" y="222.417" transform="matrix(0.5084 -0.8611 0.8611 0.5084 -154.908 179.1657)" fill="#FFFFFF" width="9.3" height="5.665"/>
	<polygon fill="url(#New_Pattern_Swatch_3)" points="79.382,219.805 74.654,227.813 79.532,230.693 84.258,222.685 	"/>
	
		<rect x="68.534" y="218.716" transform="matrix(0.5083 -0.8612 0.8612 0.5083 -154.8053 171.9556)" fill="#FFFFFF" width="9.3" height="5.659"/>
	<polygon fill="url(#New_Pattern_Swatch_3)" points="73.111,216.104 68.384,224.113 73.258,226.988 77.984,218.981 	"/>
	<path fill="url(#New_Pattern_Swatch_2)" d="M199.098,151.935L131.707,84c-0.554,1.679-1.516,3.209-2.812,4.437l56.734,57.195
		c0.656,0.66,0.66,1.713-0.004,2.374l-52.814,52.39c-0.659,0.654-1.719,0.647-2.374-0.014l-62.256-62.758
		c-0.66-0.666-0.663-1.72,0-2.379l41.229-40.899l-21.252,4.769l-31.768,31.513c-0.662,0.656-0.659,1.715-0.005,2.374l80.248,80.896
		c0.654,0.658,1.711,0.67,2.379,0.007l60.077-59.596C199.741,153.664,199.754,152.595,199.098,151.935z M165.997,181.033
		c-1.011,1.003-2.646,1-3.648-0.009c-1.006-1.014-0.995-2.643,0.02-3.649c1.009-1.001,2.638-0.998,3.644,0.016
		C167.013,178.4,167.006,180.033,165.997,181.033z"/>
	<path fill="url(#New_Pattern_Swatch_2)" d="M40.837,50.29l-14.741,3.268c-2.837,0.637-4.636,3.479-3.999,6.316l9.216,41.068
		c0.637,2.835,3.479,4.636,6.315,3.999l14.74-3.268L40.837,50.29z"/>
	<path fill="url(#New_Pattern_Swatch_2)" d="M65.097,50.569c-0.005,0-0.01,0-0.015,0.001l-15.421,3.461
		c-0.038,0.009-0.104,0.073-0.156,0.193c-0.095,0.213-0.111,0.5-0.047,0.787c0.117,0.524,0.444,0.799,0.587,0.799l15.436-3.463
		c0.038-0.009,0.104-0.073,0.157-0.193c0.094-0.213,0.11-0.499,0.046-0.785C65.567,50.843,65.239,50.569,65.097,50.569z"/>
	<path fill="url(#New_Pattern_Swatch_2)" d="M126.748,79.524l-9.217-41.069c-0.637-2.836-3.479-4.636-6.316-3.999L42.86,49.796
		l11.531,51.386l68.355-15.342C125.586,85.203,127.385,82.36,126.748,79.524z M65.7,53.325l-15.422,3.461
		c-0.077,0.018-0.155,0.026-0.233,0.026c-0.687,0-1.356-0.657-1.564-1.581c-0.231-1.031,0.199-2.005,0.961-2.176l15.422-3.461
		c0.077-0.018,0.155-0.026,0.233-0.026c0.688,0,1.358,0.657,1.564,1.582C66.893,52.179,66.463,53.153,65.7,53.325z M101.425,88.589
		c-12.409,2.785-24.727-5.018-27.512-17.426c-2.784-12.409,5.018-24.726,17.426-27.511c12.409-2.785,24.727,5.018,27.51,17.426
		C121.635,73.487,113.833,85.804,101.425,88.589z"/>
	<path fill="url(#New_Pattern_Swatch_2)" d="M96.366,85.263c-8.866,0-16.714-6.288-18.658-14.952
		c-2.31-10.296,4.187-20.553,14.482-22.864c1.386-0.311,2.801-0.468,4.208-0.468c8.865,0,16.712,6.287,18.656,14.95
		c1.12,4.988,0.23,10.113-2.506,14.433c-2.735,4.318-6.988,7.313-11.977,8.434C99.188,85.105,97.772,85.263,96.366,85.263z
		 M96.398,48.065c-1.327,0-2.663,0.149-3.97,0.442c-9.711,2.18-15.839,11.854-13.66,21.565c1.834,8.172,9.235,14.104,17.598,14.104
		c1.326,0,2.661-0.149,3.968-0.442c4.705-1.056,8.717-3.881,11.297-7.955c2.58-4.074,3.42-8.908,2.363-13.613
		C112.16,53.996,104.76,48.065,96.398,48.065z"/>
	<path fill="url(#New_Pattern_Swatch_3)" d="M105.821,64.001c-1.17-5.212-6.346-8.491-11.559-7.321
		c-5.213,1.169-8.49,6.345-7.321,11.559c1.171,5.214,6.346,8.491,11.56,7.322C103.713,74.389,106.991,69.216,105.821,64.001z
		 M97.836,72.595c-3.577,0.802-7.126-1.446-7.929-5.022c-0.803-3.575,1.445-7.125,5.021-7.927c3.576-0.802,7.126,1.447,7.928,5.021
		C103.658,68.243,101.41,71.792,97.836,72.595z"/>
	<path fill="url(#New_Pattern_Swatch_3)" d="M38.367,48.555c-0.22-0.977-3.17-1.146-6.589-0.377
		c-3.42,0.766-6.015,2.179-5.796,3.157l0.269,1.194l12.384-2.778L38.367,48.555z"/>
	<g>
		<path fill="url(#New_Pattern_Swatch_2)" d="M83.308,39.723c-0.709,0.159-0.846-0.106-0.303-0.59l0.66-0.59
			c0.543-0.484,1.566-1.01,2.275-1.169l9.027-2.026c0.709-0.159,1.861-0.128,2.561,0.07l0.927,0.262
			c0.699,0.198,0.691,0.49-0.018,0.649L83.308,39.723z"/>
	</g>
	<path fill="url(#New_Pattern_Swatch_2)" d="M46.172,48.059l-0.357-1.59c-0.158-0.709,0.291-1.42,1.001-1.58l10.487-2.352
		c0.708-0.161,1.42,0.29,1.579,0.998l0.356,1.59L46.172,48.059z"/>
	<path fill="url(#New_Pattern_Swatch_2)" d="M243.879,156.461c0.611-1.051,1.192-2.113,1.747-3.178l1.172,0.682
		c16.258-31.24,7.809-68.513-19.765-84.584c-27.562-16.065-68.619-7.253-83.766,24.241l1.178,0.686
		c-0.495,1.034-0.963,2.085-1.394,3.158c-1.044,2.591-2.011,5.219-2.901,7.872l-1.196-0.696
		c-5.205,15.396-8.021,32.991-7.151,48.431l7.938,4.13c-2.684-15.19-0.407-33.141,4.723-49.351l-1.203-0.701
		c0.988-3.098,2.093-6.174,3.313-9.204c0.26-0.648,0.539-1.285,0.823-1.92l1.178,0.687c13.122-29.359,50.783-37.735,75.943-23.071
		c25.165,14.668,32.624,48.969,17.127,77.317l1.172,0.684c-0.299,0.547-0.604,1.094-0.921,1.637c-1.632,2.8-3.481,5.523-5.508,8.149
		l-1.188-0.693c-9.235,11.871-22.299,21.667-35.947,26.985l0.563,0.327L198,191.161l5.322,3.102
		c14.395-6.582,27.939-17.46,37.306-30.36l-1.18-0.687C241.058,161.007,242.542,158.752,243.879,156.461z"/>
	<path fill="#FFFFFF" d="M184.73,196.823c-0.333-0.195-0.59-0.398-0.78-0.619l-1.19-1.378l1.661-0.746
		c5.864-2.632,12.122-6.645,18.095-11.606c7.985-6.632,14.479-14.197,17.816-20.754l1.466-2.879l1.028,3.062
		c0.093,0.275,0.191,0.552,0.29,0.833c0.789,2.238,1.684,4.775,0.268,7.376l-0.055,0.101c-0.785,1.442-1.248,2.379-0.911,3.449
		l0.116,0.366c0.468,1.455,0.997,3.103,0.329,4.986c-0.397,1.119-1.301,2.012-2.025,2.729c-0.167,0.164-0.328,0.323-0.475,0.477
		c-1.969,2.078-4.202,4.133-6.827,6.285c-3.686,3.026-7.65,5.825-12.118,8.562c-1.225,0.75-2.488,1.495-3.759,2.213
		c-0.146,0.082-0.291,0.168-0.433,0.252c-0.821,0.489-1.753,1.042-3.022,1.049c-1.106,0.007-2.114-0.477-2.926-0.868
		c-0.187-0.089-0.369-0.177-0.547-0.257l-4.116-1.816c-0.052-0.022-0.14-0.054-0.247-0.094
		C185.931,197.383,185.27,197.136,184.73,196.823z"/>
	<path fill="#FFFFFF" d="M138.767,170.033c-0.539-0.315-1.078-0.769-1.436-1.071c-0.09-0.073-0.159-0.132-0.205-0.168l-3.609-2.688
		c-0.154-0.115-0.321-0.23-0.492-0.348c-0.738-0.513-1.658-1.151-2.197-2.118c-0.62-1.108-0.597-2.192-0.576-3.147
		c0.003-0.166,0.007-0.332,0.007-0.5c0-1.46,0.023-2.928,0.072-4.363c0.177-5.162,0.674-10.129,1.477-14.762
		c0.579-3.345,1.269-6.301,2.105-9.04c0.063-0.202,0.121-0.421,0.182-0.646c0.268-0.986,0.6-2.21,1.376-3.108
		c1.31-1.51,3.005-1.862,4.497-2.171l0.379-0.079c1.097-0.233,1.684-1.098,2.552-2.493l0.062-0.097
		c1.564-2.512,4.213-2.985,6.55-3.401c0.292-0.052,0.581-0.103,0.866-0.16l3.171-0.615l-1.782,2.694
		c-4.063,6.137-7.444,15.516-9.278,25.73c-1.372,7.645-1.78,15.067-1.181,21.468l0.17,1.811l-1.786-0.357
		C139.402,170.349,139.1,170.226,138.767,170.033L138.767,170.033z"/>
	<g>
		<path fill="url(#New_Pattern_Swatch_3)" d="M175.192,77.292c1.899,1.106,3.927,1.51,5.547,1.244
			c12.772-4.303,27.336-3.241,38.843,3.465c11.329,6.604,18.457,17.867,20.729,30.587l0.013,0.008
			c0.336,1.783,1.811,3.713,4.041,5.012c1.254,0.732,2.565,1.156,3.777,1.284c-0.434-18.022-9.042-34.692-24.54-43.726
			c-15.385-8.967-35.562-9.096-51.627-0.888C172.685,75.404,173.789,76.473,175.192,77.292z"/>
	</g>
	<path fill="url(#New_Pattern_Swatch_2)" d="M141.151,147.244c1.941-10.81,5.473-20.18,9.483-26.239
		c-2.421,0.469-5.109,0.669-6.527,2.946c-0.867,1.394-1.723,2.824-3.479,3.2c-1.539,0.328-3.033,0.543-4.133,1.812
		c-0.728,0.839-0.974,2.237-1.287,3.262c-0.888,2.907-1.547,5.881-2.065,8.875c-0.836,4.816-1.29,9.695-1.458,14.578
		c-0.048,1.44-0.072,2.878-0.072,4.316c0.001,1.044-0.133,2.038,0.397,2.986c0.492,0.878,1.531,1.456,2.316,2.04
		c1.203,0.897,2.406,1.793,3.61,2.688c0.28,0.21,1.386,1.242,2.018,1.368C139.367,162.816,139.715,155.25,141.151,147.244z"/>
	<path fill="url(#New_Pattern_Swatch_3)" d="M150.497,172.549c0.989-0.4,1.868-1.211,2.468-2.289
		c1.507-3.259,3.052-7.821,4.445-13.197c0.904-3.49,1.744-7.32,2.47-11.358c0.436-2.432,0.809-4.778,1.113-7.068
		c0.646-4.82,1.002-9.206,1.072-12.972c0,0-0.001,0-0.002,0c0.048-1.075-0.412-2.025-1.194-2.729
		c-2.867,6.567-5.776,16.293-7.924,28.247C151.494,159.256,150.723,166.491,150.497,172.549z"/>
	<path fill="#FFFFFF" d="M156.174,148.182c1.629-7.681,2.115-14.063,1.088-14.256c-1.003-0.187-3.077,5.587-4.688,13.001
		c-1.657,7.879-2.161,14.411-1.153,14.816C152.466,161.724,154.574,155.733,156.174,148.182z"/>
	<path fill="url(#New_Pattern_Swatch_2)" d="M203.383,183.515c8.449-7.017,14.862-14.708,18.158-21.181
		c0.784,2.337,1.935,4.773,0.653,7.129c-0.785,1.441-1.61,2.892-1.07,4.605c0.474,1.501,1.023,2.906,0.461,4.49
		c-0.371,1.047-1.468,1.95-2.206,2.728c-2.089,2.205-4.354,4.246-6.703,6.171c-3.782,3.104-7.794,5.898-11.967,8.453
		c-1.228,0.751-2.467,1.481-3.718,2.189c-0.909,0.515-1.708,1.122-2.796,1.128c-1.006,0.004-2.019-0.615-2.917-1.012
		c-1.371-0.605-2.744-1.21-4.116-1.816c-0.322-0.141-1.765-0.594-2.187-1.082C190.713,192.743,197.127,188.712,203.383,183.515z"/>
	<path fill="url(#New_Pattern_Swatch_3)" d="M177.008,188.001c-0.139-1.058,0.134-2.221,0.777-3.274
		c2.094-2.918,5.301-6.511,9.291-10.371c2.592-2.507,5.51-5.127,8.666-7.748c1.901-1.579,3.786-3.073,5.627-4.467
		c3.877-2.938,7.556-5.43,10.782-7.34c0,0,0.002,0.001,0.002,0.002c0.866-0.544,1.939-0.625,2.937-0.291
		c-4.299,5.73-11.342,13.063-20.684,20.824C188.095,180.575,182.168,184.82,177.008,188.001z"/>
	<path fill="url(#New_Pattern_Swatch_3)" d="M195.759,176.394c9.063-7.527,16.406-15.036,20.905-21.062
		c0.395,0.216,0.765,0.502,1.09,0.857c0.4,0.493,0.793,0.999,1.168,1.537c0.642,0.921,1.208,1.858,1.701,2.797
		c0.061,0.113,0.12,0.227,0.178,0.34c-1.981,4.007-5.18,8.498-9.337,13.019c-2.638,2.87-5.659,5.75-9.002,8.525
		c-2.456,2.04-4.938,3.901-7.391,5.564c-4.062,2.751-8.051,4.962-11.739,6.556c-1.062-0.701-2.118-1.557-3.133-2.553
		c-0.52-0.511-1.027-1.056-1.521-1.638c-0.265-0.332-0.46-0.701-0.588-1.094C183.468,185.936,189.535,181.563,195.759,176.394z"/>
	<g>
		<circle fill="url(#New_Pattern_Swatch_3)" cx="143.466" cy="100.647" r="3.986"/>
		<path fill="#FFFFFF" d="M143.472,96.661c0.681,0,1.371,0.175,2.002,0.542c1.9,1.109,2.544,3.55,1.436,5.452
			c-0.74,1.271-2.076,1.979-3.447,1.979c-0.682,0-1.372-0.175-2.003-0.542c-1.902-1.108-2.546-3.549-1.437-5.452
			C140.764,97.37,142.099,96.661,143.472,96.661 M143.472,93.272L143.472,93.272c-2.616,0-5.06,1.402-6.377,3.66
			c-0.992,1.703-1.263,3.689-0.761,5.595s1.717,3.5,3.419,4.493c1.126,0.656,2.408,1.003,3.709,1.003
			c2.616,0,5.059-1.403,6.375-3.662c2.047-3.511,0.856-8.036-2.655-10.085C146.053,93.618,144.771,93.272,143.472,93.272
			L143.472,93.272z"/>
	</g>
	<circle fill="#FFFFFF" cx="143.465" cy="100.647" r="1.825"/>
	<g>
		<circle fill="url(#New_Pattern_Swatch_3)" cx="241.232" cy="157.632" r="3.986"/>
		<path fill="#FFFFFF" d="M241.237,153.645c0.682,0,1.372,0.175,2.003,0.543c1.901,1.108,2.545,3.549,1.436,5.451
			c-0.74,1.271-2.075,1.979-3.447,1.979c-0.682,0-1.371-0.174-2.002-0.542c-1.902-1.11-2.545-3.55-1.438-5.452
			C238.529,154.354,239.865,153.645,241.237,153.645 M241.237,150.256L241.237,150.256c-2.616,0-5.06,1.403-6.376,3.662
			c-2.046,3.512-0.854,8.036,2.657,10.085c1.129,0.658,2.41,1.004,3.71,1.004c2.617,0,5.06-1.404,6.376-3.663
			c0.991-1.7,1.262-3.686,0.76-5.592c-0.502-1.905-1.716-3.501-3.418-4.493C243.821,150.604,242.538,150.256,241.237,150.256
			L241.237,150.256z"/>
	</g>
	<circle fill="#FFFFFF" cx="241.233" cy="157.632" r="1.825"/>
	<path fill="url(#New_Pattern_Swatch_3)" d="M151.105,150.366c2.084-11.594,4.997-21.685,8.022-28.569
		c-0.382-0.236-0.812-0.418-1.281-0.526c-0.627-0.104-1.261-0.198-1.915-0.258c-1.117-0.106-2.211-0.137-3.271-0.103
		c-0.128,0.004-0.256,0.009-0.384,0.015c-2.509,3.698-4.841,8.695-6.726,14.54c-1.196,3.71-2.214,7.76-2.981,12.034
		c-0.563,3.143-0.96,6.219-1.198,9.174c-0.392,4.89-0.352,9.452,0.081,13.445c1.132,0.579,2.397,1.077,3.765,1.469
		c0.7,0.2,1.427,0.373,2.176,0.516c0.418,0.066,0.835,0.053,1.24-0.028C148.861,165.766,149.677,158.33,151.105,150.366z"/>
	<path fill="#FFFFFF" d="M195.271,171.176c5.881-5.203,11.194-8.771,11.869-7.973c0.656,0.781-3.346,5.43-9.002,10.487
		c-6.04,5.326-11.474,8.983-12.323,8.305C185.314,181.077,189.489,176.292,195.271,171.176z"/>
</g>
</svg>
